<svg width="64" height="64" viewBox="0 0 64 64" fill="none" xmlns="http://www.w3.org/2000/svg">
<g clip-path="url(#clip0_138_125)">
<path fill-rule="evenodd" clip-rule="evenodd" d="M19.6855 20H14.0296C11.5353 20.1189 9.48838 21.1363 8.8991 23.2355C8.599 24.3285 8.43141 25.5293 8.1812 26.6656C6.96055 32.4327 5.87864 38.3518 4.70007 44H48.7232C52.1295 44 54.4648 43.2748 55.0962 40.5479C55.3853 39.2817 55.6745 37.8431 55.9536 36.447C57.0448 31.0137 58.1361 25.5805 59.2632 20H19.6855Z" fill="#B82327"/>
<path fill-rule="evenodd" clip-rule="evenodd" d="M19.2461 28.5268C19.4799 28.3646 19.7917 27.6181 19.4386 27.3039C19.3574 27.2496 19.2656 27.2137 19.1693 27.1988C19.0731 27.1838 18.9748 27.1901 18.8813 27.2173C18.7909 27.2256 18.7031 27.2519 18.6229 27.2946C18.5426 27.3373 18.4715 27.3956 18.4136 27.4661C18.2639 27.6716 18.1244 28.2992 18.3598 28.5268C18.4933 28.6089 18.6466 28.6524 18.8029 28.6524C18.9592 28.6524 19.1125 28.6089 19.2461 28.5268ZM15.8826 27.3039C15.7111 28.4181 15.5186 29.5008 15.3253 30.593C14.0937 30.604 12.8403 30.6576 11.6516 30.5607C11.8769 29.5 12.0375 28.3638 12.262 27.3039H10.9447C10.477 30.0197 10.0342 32.7789 9.50964 35.4412H10.8589C11.0733 34.0781 11.2658 32.6931 11.5441 31.4048C12.7576 31.345 13.9735 31.3558 15.1858 31.4371C14.9605 32.7899 14.6822 34.0884 14.4679 35.453H15.8171C16.256 32.697 16.7065 29.967 17.2522 27.3157H15.8826V27.3039ZM35.0023 29.641C34.5733 29.4871 34.1027 29.5019 33.6839 29.6823C33.2652 29.8628 32.9289 30.1957 32.7419 30.615C32.8276 30.3119 32.8596 29.9552 32.9344 29.641H31.8852C31.628 31.6537 31.2531 33.5364 30.889 35.4412H32.0777C32.1783 34.1818 32.3825 32.9331 32.6881 31.708C32.7404 31.4774 32.8405 31.2606 32.9819 31.0719C33.1233 30.8833 33.3026 30.727 33.5081 30.6136C33.7137 30.5001 33.9407 30.4319 34.1742 30.4136C34.4077 30.3952 34.6424 30.4271 34.8628 30.5072C34.8737 30.193 34.9704 29.9441 35.0023 29.641ZM35.6664 34.0774C35.5585 33.7167 35.5222 33.338 35.5597 32.9631C35.5931 32.154 35.8739 31.3753 36.3633 30.7339C36.9869 30.1174 38.206 30.2253 39.1803 30.5717C39.2123 30.2363 39.277 29.9418 39.3198 29.6197C37.7235 29.3599 36.2019 29.5221 35.3999 30.3772C34.9631 30.9261 34.6517 31.5657 34.4879 32.2502C34.3242 32.9348 34.3122 33.6474 34.4528 34.3372C34.8815 35.7436 36.7912 35.8333 38.3408 35.2892C38.4047 35.0081 38.4476 34.6939 38.5014 34.4018C37.6588 34.8238 36.0414 35.0514 35.6664 34.0774ZM48.9806 29.6733C47.9307 29.1433 47.0631 30.03 46.7202 30.5607C46.8168 30.2898 46.8269 29.9221 46.9127 29.641H45.8627C45.5845 31.6316 45.2392 33.5576 44.8455 35.4412H46.056C46.0946 34.7388 46.1877 34.0406 46.3343 33.3529C46.5915 31.7403 46.9579 29.9772 48.8193 30.5072C48.884 30.2363 48.9058 29.9221 48.9806 29.6733ZM18.0355 29.641C18.0036 29.641 18.0036 29.6843 18.0036 29.7276C17.7463 31.6962 17.3932 33.5797 17.0074 35.4412H18.1961C18.4853 33.4506 18.8064 31.504 19.2133 29.641H18.0355ZM28.4579 29.5331C27.6746 29.5416 26.9239 29.8513 26.3587 30.3993C25.5838 31.3946 25.2261 32.6572 25.3626 33.9159C25.5769 35.842 27.9543 35.7774 29.8609 35.312C29.8929 34.9766 29.9786 34.6821 30.0215 34.36C29.242 34.6522 27.8795 35.0742 27.065 34.5545C26.4546 34.1648 26.4546 33.1805 26.6472 32.3253C27.9216 32.282 29.2607 32.293 30.5352 32.3253C30.7144 31.7183 30.7509 31.0774 30.642 30.4536C30.3995 29.663 29.4431 29.4567 28.4579 29.5331ZM29.5936 31.6537H26.8085C26.868 31.2717 27.0581 30.9229 27.3457 30.6678C27.6334 30.4127 28.0004 30.2676 28.383 30.2575C29.2303 30.2253 29.8539 30.5717 29.5936 31.6537ZM23.9704 29.641C23.504 29.5032 23.0122 29.4774 22.5342 29.5657C22.0562 29.654 21.6053 29.854 21.2173 30.1497C21.2173 30.1709 21.2064 30.1709 21.1854 30.1709C21.1963 30.1599 21.2064 30.1599 21.2173 30.1497C21.2283 29.9654 21.2953 29.8347 21.3031 29.652H20.2851C19.8564 32.5088 19.3497 35.2892 18.8283 38.0381H19.9975C20.1689 36.9672 20.2866 35.8412 20.522 34.8349C20.7902 35.8955 22.5573 35.69 23.3071 35.2782C24.8481 34.4348 26.0267 30.4308 23.9697 29.641H23.9704ZM23.0281 34.3482C22.3959 35.0301 20.8323 35.0191 20.7146 33.8758C20.7174 33.3555 20.7933 32.8383 20.9398 32.3395C21.0365 31.8198 21.1004 31.3221 21.1862 30.8568C21.8097 30.0882 23.6501 29.9906 23.8317 31.2788C23.9659 32.3685 23.6777 33.4684 23.0273 34.3482H23.0281ZM53.4041 27.1307C53.3119 28.0039 53.1724 28.8714 52.9863 29.7292C50.0727 28.7984 48.2947 30.9631 48.3267 33.6356C48.2986 34.1362 48.4466 34.6307 48.7444 35.0317C49.1554 35.3556 49.6507 35.5516 50.1701 35.5958C50.6894 35.64 51.2103 35.5304 51.669 35.2805C51.8264 35.1594 51.967 35.0175 52.0868 34.8585C52.1648 34.7608 52.2903 34.5018 52.3121 34.5774C52.2528 34.8626 52.217 35.1523 52.2053 35.4435H53.2763C53.5599 32.6536 54.0024 29.8826 54.6014 27.1441H53.4018L53.4041 27.1307ZM50.7477 34.8026C49.9441 34.8238 49.5481 34.3159 49.5372 33.4931C49.5052 32.0434 50.1374 30.4308 51.4079 30.2898C51.9081 30.2462 52.4114 30.3242 52.8757 30.5174C52.4727 32.1403 52.6223 34.7593 50.7477 34.8026ZM40.5187 29.641C40.4649 29.9764 40.369 30.2709 40.2934 30.593C40.9895 30.4198 43.1774 29.8678 43.3786 30.8206C43.4174 31.1238 43.3689 31.4318 43.239 31.708C41.2685 31.5237 39.6612 31.8489 39.2434 33.2663C39.0872 33.6422 39.0649 34.0612 39.1801 34.4518C39.2954 34.8425 39.5412 35.1807 39.8756 35.4089C40.4102 35.6189 40.9978 35.6479 41.5502 35.4917C42.1026 35.3355 42.5899 35.0025 42.9389 34.5427C42.8754 34.834 42.8467 35.1319 42.8532 35.4301H43.8704C43.8961 34.5324 43.9965 33.6384 44.1705 32.7576C44.353 32.0457 44.4642 31.3171 44.5026 30.5827C44.4301 29.0567 41.9217 29.5977 40.5187 29.641ZM42.4471 34.3262C41.8368 34.9325 40.1227 35.1049 40.2942 33.6553C40.4438 32.4545 41.7292 32.2056 43.133 32.3781C43.105 33.0826 42.8658 33.762 42.4471 34.3262Z" fill="white"/>
</g>
<defs>
<clipPath id="clip0_138_125">
<rect width="56" height="25.6" fill="white" transform="translate(4.80005 19.2)"/>
</clipPath>
</defs>
</svg>
